HIERARCHY
ROOT hips
{
  OFFSET 0 10.680822821525009 1.3929502295107734
  CHANNELS 6 Xposition Yposition Zposition Yrotation Xrotation Zrotation
  JOINT spine
  {
    OFFSET -7.042017322922631e-31 0.6058489940359625 0
    CHANNELS 3 Yrotation Xrotation Zrotation
    JOINT chest
    {
      OFFSET 0 1.2699794144455032 0
      CHANNELS 3 Yrotation Xrotation Zrotation
      JOINT upperChest
      {
        OFFSET 0 1.217799211677689 0
        CHANNELS 3 Yrotation Xrotation Zrotation
        JOINT neck
        {
          OFFSET 0 1.5248826104153006 0
          CHANNELS 3 Yrotation Xrotation Zrotation
          JOINT head
          {
            OFFSET 0 0.8197772727844447 0
            CHANNELS 3 Yrotation Xrotation Zrotation
            JOINT leftEye
            {
              OFFSET 0.2793952361220866 0.6769952096623495 0.1830357412467788
              CHANNELS 3 Yrotation Xrotation Zrotation
              End Site
              {
                OFFSET 0.2793952361220866 0.6769952096623495 0.1830357412467788
              }
            }
            JOINT rightEye
            {
              OFFSET -0.27939522230689573 0.676995205357064 0.18303631459760622
              CHANNELS 3 Yrotation Xrotation Zrotation
              End Site
              {
                OFFSET -0.27939522230689573 0.676995205357064 0.18303631459760622
              }
            }
          }
        }
        JOINT leftShoulder
        {
          OFFSET 0.41486978509200423 1.1670505408695453 0
          CHANNELS 3 Yrotation Xrotation Zrotation
          JOINT leftUpperArm
          {
            OFFSET 0.9737926108153417 0 0
            CHANNELS 3 Yrotation Xrotation Zrotation
            JOINT leftLowerArm
            {
              OFFSET 2.5269332222665284 0 0
              CHANNELS 3 Yrotation Xrotation Zrotation
              JOINT leftHand
              {
                OFFSET 2.4263782738425914 0 0
                CHANNELS 3 Yrotation Xrotation Zrotation
                JOINT leftIndexProximal
                {
                  OFFSET 0.724320348022514 0.08170607082582437 0.20360061616140124
                  CHANNELS 3 Yrotation Xrotation Zrotation
                  JOINT leftIndexIntermediate
                  {
                    OFFSET 0.36548960630744587 -0.010566596513783999 -0.01414783573280308
                    CHANNELS 3 Yrotation Xrotation Zrotation
                    JOINT leftIndexDistal
                    {
                      OFFSET 0.22502819650693362 -0.007863819831430696 -0.007567681939621526
                      CHANNELS 3 Yrotation Xrotation Zrotation
                      End Site
                      {
                        OFFSET 0.22502819650693362 -0.007863819831430696 -0.007567681939621526
                      }
                    }
                  }
                }
                JOINT leftLittleProximal
                {
                  OFFSET 0.6720322998298205 0.08170601055037707 -0.3230036039466837
                  CHANNELS 3 Yrotation Xrotation Zrotation
                  JOINT leftLittleIntermediate
                  {
                    OFFSET 0.34583592281688713 5.476543019078406e-8 1.3869203337180114e-7
                    CHANNELS 3 Yrotation Xrotation Zrotation
                    JOINT leftLittleDistal
                    {
                      OFFSET 0.19925728062053938 0.003098047439490381 0.0038303983709246925
                      CHANNELS 3 Yrotation Xrotation Zrotation
                      End Site
                      {
                        OFFSET 0.19925728062053938 0.003098047439490381 0.0038303983709246925
                      }
                    }
                  }
                }
                JOINT leftMiddleProximal
                {
                  OFFSET 0.7300436596551069 0.0817073395107144 0.022661722987926763
                  CHANNELS 3 Yrotation Xrotation Zrotation
                  JOINT leftMiddleIntermediate
                  {
                    OFFSET 0.40758254347686607 -0.0000012383587111308714 2.408460318820138e-7
                    CHANNELS 3 Yrotation Xrotation Zrotation
                    JOINT leftMiddleDistal
                    {
                      OFFSET 0.2514490105498507 0.0000013869132886590307 9.738618134136345e-8
                      CHANNELS 3 Yrotation Xrotation Zrotation
                      End Site
                      {
                        OFFSET 0.2514490105498507 0.0000013869132886590307 9.738618134136345e-8
                      }
                    }
                  }
                }
                JOINT leftRingProximal
                {
                  OFFSET 0.7217261161191838 0.08170601902187746 -0.15043395722184966
                  CHANNELS 3 Yrotation Xrotation Zrotation
                  JOINT leftRingIntermediate
                  {
                    OFFSET 0.37808807487521556 0.0000013754022405443322 2.2046919317952884e-7
                    CHANNELS 3 Yrotation Xrotation Zrotation
                    JOINT leftRingDistal
                    {
                      OFFSET 0.21812105442344254 -0.002713483731960231 -0.004991354517454624
                      CHANNELS 3 Yrotation Xrotation Zrotation
                      End Site
                      {
                        OFFSET 0.21812105442344254 -0.002713483731960231 -0.004991354517454624
                      }
                    }
                  }
                }
                JOINT leftThumbProximal
                {
                  OFFSET 0.10793587079521427 -0.1652791240518252 -0.07775251827190094
                  CHANNELS 3 Yrotation Xrotation Zrotation
                  JOINT leftThumbIntermediate
                  {
                    OFFSET 0.40355819082296684 -0.017484006740276614 0.3177776014416309
                    CHANNELS 3 Yrotation Xrotation Zrotation
                    JOINT leftThumbDistal
                    {
                      OFFSET 0.2318764658022603 -0.018510186824293617 0.21396001800186287
                      CHANNELS 3 Yrotation Xrotation Zrotation
                      End Site
                      {
                        OFFSET 0.2318764658022603 -0.018510186824293617 0.21396001800186287
                      }
                    }
                  }
                }
              }
            }
          }
        }
        JOINT rightShoulder
        {
          OFFSET -0.4148697850920044 1.1670505408695453 0
          CHANNELS 3 Yrotation Xrotation Zrotation
          JOINT rightUpperArm
          {
            OFFSET -0.9737926108153414 0 0
            CHANNELS 3 Yrotation Xrotation Zrotation
            JOINT rightLowerArm
            {
              OFFSET -2.5269332222665293 0 0
              CHANNELS 3 Yrotation Xrotation Zrotation
              JOINT rightHand
              {
                OFFSET -2.42637827384259 0 0
                CHANNELS 3 Yrotation Xrotation Zrotation
                JOINT rightIndexProximal
                {
                  OFFSET -0.724320348022514 0.08170607082582437 0.20360061616140124
                  CHANNELS 3 Yrotation Xrotation Zrotation
                  JOINT rightIndexIntermediate
                  {
                    OFFSET -0.36548960630744587 -0.010566596513783999 -0.01414783573280308
                    CHANNELS 3 Yrotation Xrotation Zrotation
                    JOINT rightIndexDistal
                    {
                      OFFSET -0.22502819650693362 -0.007863819831430696 -0.007567681939621526
                      CHANNELS 3 Yrotation Xrotation Zrotation
                      End Site
                      {
                        OFFSET -0.22502819650693362 -0.007863819831430696 -0.007567681939621526
                      }
                    }
                  }
                }
                JOINT rightLittleProximal
                {
                  OFFSET -0.6720322998298205 0.08170601055037707 -0.3230036039466837
                  CHANNELS 3 Yrotation Xrotation Zrotation
                  JOINT rightLittleIntermediate
                  {
                    OFFSET -0.34583592281688713 5.476543019078406e-8 1.3869203337180114e-7
                    CHANNELS 3 Yrotation Xrotation Zrotation
                    JOINT rightLittleDistal
                    {
                      OFFSET -0.19925728062053938 0.003098047439490381 0.0038303983709246925
                      CHANNELS 3 Yrotation Xrotation Zrotation
                      End Site
                      {
                        OFFSET -0.19925728062053938 0.003098047439490381 0.0038303983709246925
                      }
                    }
                  }
                }
                JOINT rightMiddleProximal
                {
                  OFFSET -0.7300436596551069 0.0817073395107144 0.022661722987926763
                  CHANNELS 3 Yrotation Xrotation Zrotation
                  JOINT rightMiddleIntermediate
                  {
                    OFFSET -0.40758254347686607 -0.0000012383587111308714 2.408460318820138e-7
                    CHANNELS 3 Yrotation Xrotation Zrotation
                    JOINT rightMiddleDistal
                    {
                      OFFSET -0.2514490105498507 0.0000013869132886590307 9.738618134136345e-8
                      CHANNELS 3 Yrotation Xrotation Zrotation
                      End Site
                      {
                        OFFSET -0.2514490105498507 0.0000013869132886590307 9.738618134136345e-8
                      }
                    }
                  }
                }
                JOINT rightRingProximal
                {
                  OFFSET -0.7217261161191838 0.08170601902187746 -0.15043395722184966
                  CHANNELS 3 Yrotation Xrotation Zrotation
                  JOINT rightRingIntermediate
                  {
                    OFFSET -0.37808807487521556 0.0000013754022405443322 2.2046919317952884e-7
                    CHANNELS 3 Yrotation Xrotation Zrotation
                    JOINT rightRingDistal
                    {
                      OFFSET -0.21812105442344254 -0.002713483731960231 -0.004991354517454624
                      CHANNELS 3 Yrotation Xrotation Zrotation
                      End Site
                      {
                        OFFSET -0.21812105442344254 -0.002713483731960231 -0.004991354517454624
                      }
                    }
                  }
                }
                JOINT rightThumbProximal
                {
                  OFFSET -0.10793587079521427 -0.1652791240518252 -0.07775251827190094
                  CHANNELS 3 Yrotation Xrotation Zrotation
                  JOINT rightThumbIntermediate
                  {
                    OFFSET -0.40355819082296684 -0.017484006740276614 0.3177776014416309
                    CHANNELS 3 Yrotation Xrotation Zrotation
                    JOINT rightThumbDistal
                    {
                      OFFSET -0.2318764658022603 -0.018510186824293617 0.21396001800186287
                      CHANNELS 3 Yrotation Xrotation Zrotation
                      End Site
                      {
                        OFFSET -0.2318764658022603 -0.018510186824293617 0.21396001800186287
                      }
                    }
                  }
                }
              }
            }
          }
        }
      }
    }
  }
  JOINT leftUpperLeg
  {
    OFFSET 0.8486251390888677 -0.4421577294694363 0
    CHANNELS 3 Yrotation Xrotation Zrotation
    JOINT leftLowerLeg
    {
      OFFSET 0 -4.10147812638609 0
      CHANNELS 3 Yrotation Xrotation Zrotation
      JOINT leftFoot
      {
        OFFSET -0.0002543926476658853 -4.77292286812444 0.007402811231737388
        CHANNELS 3 Yrotation Xrotation Zrotation
        JOINT leftToes
        {
          OFFSET 0 -0.7027875951174846 1.2062924140498823
          CHANNELS 3 Yrotation Xrotation Zrotation
          End Site
          {
            OFFSET 0 -0.7027875951174846 1.2062924140498823
          }
        }
      }
    }
  }
  JOINT rightUpperLeg
  {
    OFFSET -0.8486251390888677 -0.4421577294694363 0
    CHANNELS 3 Yrotation Xrotation Zrotation
    JOINT rightLowerLeg
    {
      OFFSET 0 -4.10147812638609 0
      CHANNELS 3 Yrotation Xrotation Zrotation
      JOINT rightFoot
      {
        OFFSET 0.0002543926476658853 -4.77292286812444 0.007402811231737388
        CHANNELS 3 Yrotation Xrotation Zrotation
        JOINT rightToes
        {
          OFFSET 0 -0.7027875951174846 1.2062924140498823
          CHANNELS 3 Yrotation Xrotation Zrotation
          End Site
          {
            OFFSET 0 -0.7027875951174846 1.2062924140498823
          }
        }
      }
    }
  }
}
MOTION
Frames: 4
Frame Time: 0.03333333333333333
-0.020483704283833504 -0.20367762651768473 0.056135568767786026 0.11141190900328198 -3.291960626200084 -3.1451493873898544 1.8423043387355769 3.989962373842698 0.39014545309041754 0.5924569500809579 5.761482661222185 1.7731053564109909 0 0 0 0.024593048078643626 -0.22781256871761357 -0.6957674561156812 -0.3930465446508582 -9.202053380283935 -0.2722417219257935 0 0 0 0 0 0 2.230204634092382 0.3848952603868503 -4.336001117232756 -24.299702492335364 -5.123478426869741 -67.79417690736335 -3.701491155945815 -0.5644567638987048 0.0660490468193661 -4.716271623993104 7.453869849490707 -5.122983070252899 5.054734451547024 2.389819418380902 -29.243380267781873 1.9253231805164919 0.3083001652476828 -18.194954342651773 1.6644695358205905 0.22889380158664602 -15.661654232040512 8.017520835830476 3.3090745178996976 -23.462391300117336 0.5254578596394252 2.0813734878442895 -48.6837546280988 3.844456255856856 1.3446621793187956 -38.54599234007636 4.82544806263378 2.1519869186519336 -27.605946947993647 2.8511367841386983 0.6986905999863671 -27.53528823287585 2.377214921207814 0.47665606572205316 -22.674694096278916 4.535979384505521 1.87706683084492 -25.63924713983653 3.8865985537109697 1.3785210904102148 -39.04733787429939 3.224590043406253 0.9101851073540388 -31.5192762438561 14.887755568050533 3.524289472697826 9.181243102456689 12.615998951296785 3.215570729588429 0.6045063249222485 11.522327926974098 0.37525135469281173 4.361048520884196 -2.2962181909055905 0.3195278841149245 4.01511319953404 9.08127218619856 -9.510524389036888 70.70252087883924 8.395063098841904 -1.2718065800572407 -0.20197548284274644 11.87787552082279 21.78378626243891 6.324773506608557 -8.428620431746285 4.649106111016956 26.14654677544365 -1.7167247571524022 0.24109518341218303 15.986100011864684 -1.3547860687250555 0.14903525593776942 12.55357391659462 -11.673225181419417 8.245898864551316 31.703795493258824 -4.030325643765769 1.477405139310268 40.249906166525456 -3.933883780606148 1.3974538467943227 39.10090220733895 -9.483048951210556 5.671822089491362 27.84366858723781 -2.4885983563073792 0.5182871052115681 23.525986961143275 -2.490609593689837 -0.11599005822609451 20.666016386742236 -10.731622248365973 7.053798074425606 29.97846369905428 -3.3836968165782464 0.9980789989633435 32.86029087123673 -3.6079456852864684 0.3974552037992923 30.88316914807697 -15.872474695411574 4.621223306332051 -10.347130508480344 -14.962921349004475 3.9816384383102466 -0.8804073628856357 -11.136245581852956 -0.800250287638715 -4.701128767064239 13.691269874814475 -9.148000106379103 5.95654956929396 10.96363056973453 21.745134984906436 7.16240220459825 6.7120618257484255 -9.093961960145789 -8.338403310897913 0.00003048357929833369 -4.700751087418266 -3.9469092839158526e-7 -3.942353679613352 -10.175193746994346 0.988977540193182 -10.742818736351499 13.957612805224251 -6.642151167314727 -18.589014481151214 1.8901492297587288 6.169521956672428 0.000009506299124400906 -4.311323814301964 -9.784661812396939e-7
-0.020715918391942978 -0.20387789812413004 0.055910103023052216 0.052749024959055674 -3.2936637281865466 -3.1513530457780683 1.8438610575266705 3.9727505947153645 0.39155033394479416 0.5941304774185959 5.779813441053371 1.789137054261791 0 0 0 0.009231970514579581 -0.24341936281572843 -0.6720245057762108 -0.4690039396899508 -9.19057455389635 -0.23558963622693235 0 0 0 0 0 0 2.234026764972306 0.3840665210019273 -4.322960190458375 -24.222533873242686 -5.029441623715151 -67.86583813870743 -3.651283226217124 -0.5568209405448107 0.06492583538606203 -4.773494864024394 7.562682246336332 -5.204851203635582 5.0904945067995895 2.4154564461265267 -29.172092900783866 1.9253338468165517 0.3082958162752141 -18.194923566228095 1.6618361598080826 0.2281756121545419 -15.636307569264892 8.091030739497533 3.335905912226912 -23.268751883962768 0.5124437616025439 2.0666366654371027 -48.50164603739411 3.810635498885222 1.3179116728251767 -38.14598234762608 4.87128895211233 2.1816300042781998 -27.49781041750621 2.845750644923037 0.6958848386482455 -27.478867406285637 2.363248165743387 0.4708392137490552 -22.534142361566886 4.594155864414768 1.9119689662128407 -25.485065655852033 3.8759854814540287 1.3699424667145204 -38.92080621126185 3.1984152826300654 0.8942195885523075 -31.234780637071882 14.909111043726757 3.5049251109045585 9.224065858632208 12.616016387859132 3.2155465724491745 0.6045447497373398 11.495155259166948 0.3533441205167037 4.361728190792943 -2.303722503964437 0.3216703025369421 4.054305666557071 9.021451487780919 -9.518404692765731 70.66246218072423 8.345765507950302 -1.264446742720699 -0.20021075122824417 11.882854120425169 21.842246310972644 6.279347632936261 -8.438646165936644 4.667617736485125 26.22939374392324 -1.7167266772979064 0.24108539160899212 15.986112443103323 -1.352751943813296 0.14856816013675075 12.534476343005462 -11.659890308589011 8.242199656593403 31.737439282799954 -4.0303239398747985 1.477397346035043 40.24992803264859 -3.9346785207948445 1.398088602935306 39.11036168786865 -9.48492570154885 5.684647228019994 27.911032100587864 -2.4886495365065935 0.5183275010300542 23.52647017667757 -2.4876557323963002 -0.11319230309264475 20.655526839676117 -10.724489929916857 7.05808188289447 30.02686806576187 -3.383726000270938 0.9981004532813303 32.86068120868741 -3.6053511693497855 0.4007176320836689 30.883798744192404 -15.867298268047618 4.616686131910471 -10.350080124509347 -14.962898083892451 3.9816298799168957 -0.8803760214702113 -11.137310478103473 -0.7992514886176981 -4.701189052588348 13.700278391390082 -9.149217708457396 5.967726742357317 10.963835363017434 21.76009084961861 7.16108435004787 6.757979203626665 -9.100897319134383 -8.349550049428373 0.000021752859912370356 -4.707624494063623 -0.0000011374768405398371 -3.94161706762719 -10.186843359314294 0.9952818869548862 -10.745778813624153 13.964811901474894 -6.629515359681779 -18.535716669970412 1.8856572227489274 6.1542821447947 -0.00001407325841255681 -4.3045050965123615 -0.0000015287242833867508
-0.021089714020490646 -0.20432326402989176 0.055579520761966705 -0.05866733595027944 -3.3024411849203084 -3.160667528037993 1.8511356301340403 3.9413790252984255 0.3942115294533386 0.5982203200804184 5.818995153495925 1.812945675531991 0 0 0 -0.023499605090551056 -0.2691324009835258 -0.613981814444227 -0.6296658701242307 -9.160559422408296 -0.14602863650133893 0 0 0 0 0 0 2.2215055736841887 0.3820646972265537 -4.286821255145378 -24.091141321226694 -4.872284244859635 -68.00948914053582 -3.563765598008832 -0.5435538069567235 0.06293658765115606 -4.857583279117751 7.678540655874602 -5.3938914291916165 5.17992389740024 2.4807917718794856 -29.041307085084473 1.9253485663104153 0.30831158463552316 -18.19493112138116 1.6586606863745323 0.22727914274504135 -15.605870291780326 8.313228300898782 3.426322122510614 -22.81084567090214 0.49052404370302394 2.041996289204152 -48.19574637620632 3.750967314841161 1.2716472052937742 -37.4457323522357 4.997230735140927 2.2644988187537494 -27.26872311025794 2.8366890364281754 0.6911790271811167 -27.384079732597733 2.3397243198891227 0.46114295927581733 -22.297855907066722 4.7660826568913155 2.0157790343890616 -25.13311662834411 3.85811842345873 1.3555646938638493 -38.708101518904144 3.1528604346344125 0.866874151267535 -30.741420737647072 14.986192395737062 3.4966885410696977 9.29128228205246 12.616011381016666 3.2155677366684903 0.6045427723824736 11.443835543392558 0.3119286229910531 4.363230087905998 -2.305194893826985 0.32702987243988924 4.16129375204717 8.868635251011248 -9.527520551495046 70.56208060339398 8.232640146815916 -1.2475380687081747 -0.19627022172367653 11.910640231992819 21.97154299345788 6.205474024433838 -8.210488205166424 4.541310045784655 26.539131333299345 -1.7167477988982018 0.2410716510677416 15.986093445750681 -1.3556892761835742 0.14922475430848683 12.562123031749602 -11.659487531415946 8.251650477016948 31.777861039258845 -4.030307086830669 1.4774021501088086 40.24991579589654 -3.9362537098750767 1.399372954474842 39.129020341503896 -9.326918263263213 5.599206859912649 28.139991780190627 -2.4885314605041198 0.5182739779046915 23.525280217452593 -2.500598216230878 -0.1301622799199418 20.679828769068795 -10.653888822393576 7.024716195178414 30.1524560155408 -3.3836113735242415 0.9980151696997127 32.859414554480175 -3.620833687286018 0.3855299487156087 30.90409799496893 -15.868246597331641 4.607885106966044 -10.36355544769901 -14.962894776610177 3.9816298799168957 -0.8804103044860324 -11.137235790450514 -0.7991871291678488 -4.701275281902277 13.71686353860335 -9.145046055017128 5.986469266449878 10.96397777253224 21.789779227765187 7.1603614679070615 6.848125947518523 -9.115595087273695 -8.37204793834523 0.000007264401848223635 -4.718488358679838 0.000005040955861497145 -3.945322073966964 -10.206026679191922 1.0014327083517602 -10.744555247424831 13.987516525555769 -6.60182405844778 -18.427729843844332 1.8709118863942285 6.127208703409783 0.000002763785977638793 -4.29029463617192 0.0000016750626455946391
-0.021169910207390785 -0.20479151811924723 0.0554434135556221 -0.15282240047709755 -3.3188559108627085 -3.1616748727011266 1.8563535526111277 3.9184961649533543 0.39319181840642087 0.6011666495057956 5.857963745484787 1.8263284599444618 0 0 0 -0.05705546056211866 -0.2881045697036341 -0.544341918934264 -0.7891950364104416 -9.117387602660354 -0.04524484318066036 0 0 0 0 0 0 2.1841586005204077 0.37941364484184736 -4.232259117865409 -24.000650023003082 -4.758835166908698 -68.15872091122105 -3.5073665998604366 -0.5349822869376292 0.061696157986767634 -4.860384243465645 7.666091324269465 -5.533942459509863 5.203017698452189 2.4981782059242104 -29.047806179096483 1.9253379000105395 0.3083064352386684 -18.194938676534516 1.660157487992804 0.22770659322646905 -15.620138053495053 8.458677851778676 3.4735501048054176 -22.426521606749144 0.4825816502476926 2.033168664579267 -48.08580798775062 3.7218549404563688 1.2495022144021055 -37.10665892190085 5.054326256905986 2.2996468875160505 -27.156286924788198 2.8334200781779075 0.6894854975928516 -27.35000005170381 2.3303075485032254 0.4572942375042974 -22.2034431697516 4.866041896992774 2.0719508163807396 -24.872277574479572 3.851637989425745 1.3503827641295763 -38.631212315919875 3.13155820423134 0.8542517118727779 -30.511879881406976 15.048204807210784 3.5344312615838844 9.282546035755706 12.6160038707526 3.215567522888495 0.6045084091611896 11.41980228144322 0.2925639133916386 4.363980545532272 -2.278013857675015 0.33313776374559034 4.300882683332142 8.66465372384696 -9.52521689128528 70.43892885548225 8.098869777864703 -1.2275416541364386 -0.19165407758343486 11.948385842401116 22.115808886241403 6.149442568268629 -7.712392944517018 4.226859562343892 26.98296707274465 -1.716732864433395 0.24107736072954108 15.986114084631653 -1.3663953646672353 0.15162402660595092 12.662906558981645 -11.704469166405337 8.289927967434378 31.768691855744812 -4.030301123212325 1.4773881649163199 40.2499328473342 -3.9374814896837407 1.4003740894266947 39.143456163105725 -8.997774671869822 5.389432138675473 28.450388564021587 -2.4880729994565054 0.5180768014896355 23.520863197774165 -2.5357112712465493 -0.17429827877718224 20.753758590722796 -10.533190285253644 6.950355152045661 30.288989684463466 -3.383247484600342 0.9977920875004317 32.85540507773774 -3.6607183496336906 0.34426225521991133 30.942863053064418 -15.888715685507732 4.603136453227743 -10.384993572484024 -14.962926309927235 3.981617042327036 -0.8804440526647975 -11.130110293463224 -0.8049118688298398 -4.701447360108535 13.724086405848768 -9.128462832259844 5.991110735675294 10.964270421591845 21.8142207646048 7.167786314784221 6.937962022801373 -9.128481856216757 -8.395878629247315 0.0000014628349568220797 -4.7239398442779095 0.000004260267445583506 -3.9560292162318893 -10.220415361636604 0.9956078134535543 -10.73817075479157 14.024114700735609 -6.577933374579879 -18.327771322270173 1.8489769167019083 6.109723508652185 -0.000023053537773296293 -4.278372522946127 0.000004575367021263104
